<svg xmlns="http://www.w3.org/2000/svg" width="24" height="24" fill="none" viewBox="0 0 24 24">
    <path fill="#000" fill-rule="evenodd" d="M11.994 0c2.94 0 5.698 1.204 7.777 3.393C21.851 5.58 23 8.485 23 11.579c0 3.094-1.144 5.997-3.223 8.186-2.121 2.233-4.94 3.393-7.786 3.393-1.772 0-3.558-.45-5.19-1.376-1.466 1.111-2.899 1.351-3.87 1.351-.363 0-.661-.034-.87-.068-.447-.074-.791-.44-.86-.91-.07-.47.157-.926.562-1.137.842-.435 1.41-1.307 1.763-2.056C-.08 14.394.199 7.623 4.218 3.392 6.297 1.205 9.055 0 11.994 0zM7.06 20.426c3.823 2.365 8.683 1.709 11.823-1.596 3.8-4 3.8-10.502-.005-14.502-3.795-4-9.977-4-13.777 0-3.637 3.829-3.814 9.998-.409 14.047.088.107.14.24.154.372.032.137.023.284-.033.426-.349.837-.944 1.914-1.888 2.639h.004c.819 0 2.056-.216 3.317-1.244.014-.015.032-.03.05-.04.2-.21.512-.259.764-.102z" clip-rule="evenodd"/>
    <path fill="#fff" d="M19.771 3.393l-.109.103.11-.103zm.005 16.372l.109.103-.11-.103zM6.799 21.782l.074-.13-.086-.05-.079.06.091.12zm-4.74 1.283l-.024.148.025-.148zm-.86-.91l.148-.023-.148.022zm.563-1.137l-.07-.133.07.133zm1.763-2.056l.135.064.04-.084-.058-.073-.117.093zm.693-15.57l-.109-.102.109.103zM18.883 18.83l.109.103-.11-.103zM7.06 20.426l-.08.127.08-.127zM18.878 4.328l-.109.103.11-.103zm-13.777 0l.11.103-.11-.103zm-.409 14.047l.116-.096-.001-.001-.115.097zm.154.372l-.15.015.001.01.003.01.146-.035zm-.033.426l.139.057v-.003l-.139-.054zm-1.888 2.639l-.092-.12-.35.27h.442v-.15zm3.32-1.244l.095.116.008-.006.006-.007-.108-.103zm.052-.04l.07.134.021-.012.018-.018-.11-.103zM19.88 3.29c-2.107-2.218-4.904-3.44-7.886-3.44v.3c2.898 0 5.617 1.187 7.668 3.346l.218-.206zm3.27 8.289c0-3.132-1.164-6.072-3.27-8.29l-.218.207c2.052 2.16 3.187 5.026 3.187 8.083h.3zm-3.265 8.29c2.106-2.218 3.264-5.158 3.264-8.29h-.3c0 3.057-1.13 5.923-3.182 8.083l.218.206zm-7.895 3.439c2.887 0 5.745-1.177 7.895-3.44l-.218-.206c-2.093 2.202-4.872 3.346-7.677 3.346v.3zm-5.265-1.395c1.656.938 3.467 1.395 5.265 1.395v-.3c-1.747 0-3.507-.444-5.117-1.356l-.148.26zm-3.796 1.37c.998 0 2.464-.246 3.96-1.381l-.18-.24c-1.434 1.088-2.833 1.321-3.78 1.321v.3zm-.894-.07c.216.035.522.07.894.07v-.3c-.353 0-.643-.033-.845-.066l-.049.296zm-.984-1.037c.078.53.468.952.984 1.037l.049-.296c-.377-.062-.676-.374-.737-.785l-.296.044zm.642-1.29c-.464.24-.721.76-.642 1.29l.296-.044c-.06-.41.139-.8.484-.98l-.138-.267zm1.696-1.988c-.35.74-.899 1.574-1.696 1.987l.138.267c.886-.46 1.472-1.368 1.83-2.126l-.272-.128zm.72-15.608C.039 7.574-.244 14.429 3.407 19.055l.235-.186C.084 14.36.36 7.672 4.326 3.496L4.11 3.29zm7.885-3.44c-2.981 0-5.779 1.222-7.885 3.44l.217.206C6.378 1.336 9.097.15 11.994.15v-.3zm6.78 18.877c-3.092 3.254-7.874 3.898-11.636 1.571l-.157.256c3.885 2.402 8.823 1.734 12.01-1.62l-.217-.207zM18.77 4.43c3.75 3.942 3.75 10.354.005 14.296l.218.206c3.855-4.058 3.855-10.65-.005-14.708l-.217.206zm-13.559 0c3.741-3.937 9.823-3.937 13.56 0l.217-.206C15.132.162 8.852.163 4.993 4.225l.217.206zm-.403 13.847C1.45 14.288 1.626 8.204 5.21 4.431l-.217-.206c-3.69 3.884-3.87 10.139-.416 14.246l.23-.193zm.188.453c-.017-.16-.079-.32-.187-.452l-.232.19c.069.084.11.188.12.293l.299-.031zm-.042.496c.066-.17.078-.348.039-.515l-.292.07c.025.106.018.222-.027.336l.28.11zM3.016 21.93c.975-.747 1.583-1.853 1.936-2.7l-.277-.115c-.345.827-.928 1.876-1.842 2.578l.183.237zm-.087-.268h-.004v.3h.004v-.3zm3.222-1.21c-1.229 1.002-2.43 1.21-3.222 1.21v.3c.846 0 2.12-.224 3.411-1.278l-.19-.232zm.076-.056c-.035.018-.066.043-.09.069l.217.206.007-.006.006-.003-.14-.266zm.912-.097c-.315-.197-.704-.133-.951.127l.218.206c.153-.161.386-.196.574-.079l.159-.254z"/>
    <ellipse cx="11.994" cy="11.579" fill="#000" rx=".772" ry=".813"/>
    <ellipse cx="15.976" cy="11.579" fill="#000" rx=".772" ry=".813"/>
    <ellipse cx="8.013" cy="11.579" fill="#000" rx=".772" ry=".813"/>
</svg>
