<svg xmlns="http://www.w3.org/2000/svg" width="24" height="25" fill="none" viewBox="0 0 24 25">
    <path fill="#F47634" fill-rule="evenodd" d="M11.558 19.04c.105.115.267.18.442.18s.337-.065.442-.18l5.209-5.637c.03-.033.057-.07.08-.112.164-.234.123-.514-.104-.7l-.185-.151c-.25-.206-.655-.201-.86.022l-3.85 4.168V3.136c0-.317-.274-.575-.61-.575h-.244c-.336 0-.61.258-.61.575V16.63l-3.85-4.167c-.206-.224-.61-.228-.861-.022l-.184.15c-.13.107-.197.259-.189.427.007.139.067.28.166.387l5.208 5.637z" clip-rule="evenodd"/>
    <path fill="#F47634" fill-rule="evenodd" d="M21.262 14.46h-.244c-.16 0-.303.056-.413.163l-.018.017-.02.02c-.103.109-.158.25-.158.41v5.881H3.59V15.07c0-.336-.273-.61-.61-.61h-.243c-.336 0-.61.274-.61.61v6.735c0 .336.274.61.61.61h18.524c.336 0 .61-.274.61-.61V15.07c0-.336-.273-.61-.61-.61z" clip-rule="evenodd"/>
</svg>
