<svg xmlns="http://www.w3.org/2000/svg" width="21" height="24" fill="none" viewBox="0 0 21 24">
    <path fill="#000" fill-rule="evenodd" d="M20.525 6.401c-.007-.031-.016-.062-.027-.092-.003-.007-.005-.013-.006-.02-.003-.008-.005-.017-.009-.025-.014-.032-.03-.063-.049-.093l-.004-.007-.003-.007-.01-.019c-.027-.04-.057-.077-.091-.11L15.012.714c-.034-.033-.07-.064-.11-.09l-.02-.01-.013-.008c-.03-.019-.061-.035-.093-.049-.009-.004-.017-.006-.026-.008l-.019-.006c-.075-.03-.156-.044-.237-.043H3.228C1.744.502.542 1.704.54 3.188v17.595c.002 1.484 1.204 2.687 2.688 2.688h14.624c1.484-.001 2.686-1.204 2.688-2.688V6.546c0-.049-.005-.097-.015-.145zm-5.298-3.398l2.81 2.81h-1.588c-.675 0-1.222-.547-1.222-1.222V3.003zM3.228 22.005h14.624c.675 0 1.222-.547 1.222-1.222V7.28h-2.625c-1.484-.002-2.686-1.204-2.688-2.688V1.966H3.228c-.675 0-1.222.547-1.222 1.222v17.595c0 .675.547 1.222 1.222 1.222z" clip-rule="evenodd"/>
    <path fill="#fff" d="M20.497 6.309l-.281.103v.002l.281-.105zm.028.092l.294-.06-.001-.007-.293.067zm-.033-.111l.289-.08-.29.08zm-.009-.026l-.275.12.002.003.273-.123zm-.049-.093l-.258.153.003.005.255-.158zm-.004-.007l.265-.141-.265.14zm-.003-.007l-.282.102.006.018.01.017.266-.137zm0 0l.282-.103-.007-.017-.008-.017-.267.137zm-.01-.019l-.25.166.25-.166zm-.091-.11l.212-.212-.212.212zM15.012.714l.212-.212-.212.212zm-.11-.09l-.167.25.167-.25zm-.02-.01l.138-.268-.01-.004-.127.271zm0 0l-.136.266.01.005.127-.272zM14.87.605L14.71.86l.005.003.153-.258zm-.093-.049l-.123.274.003.001.12-.275zM14.75.549l-.079.289.08-.29zm-.019-.006l-.109.28.006.001.103-.281zM14.494.5v.3h.004l-.004-.3zM3.228.5V.2v.3zM.54 3.188h-.3.3zm0 17.595h-.3.3zm2.688 2.688v.3-.3zm14.624 0v.3-.3zm2.688-2.688h.3-.3zm0-14.237h-.3.3zm-2.503-.733v.3h.724L18.25 5.6l-.212.213zm-2.81-2.81l.212-.212-.512-.513v.725h.3zm3.847 4.276h.3v-.3h-.3v.3zm-2.625 0v.3-.3zM13.761 4.59h-.3.3zm0-2.625h.3v-.3h-.3v.3zm6.456 4.448c.006.018.012.036.016.054l.585-.134c-.01-.045-.024-.088-.04-.13l-.561.21zm-.015-.045c.001.004.006.023.014.043l.563-.207.003.009-.001-.004-.579.159zm.007.018l-.007-.02v-.002.004l.579-.159c-.001-.004-.01-.036-.024-.069l-.548.246zm-.03-.058c.011.017.02.036.03.055l.55-.24c-.02-.045-.043-.089-.07-.13l-.51.315zm-.013-.024l.01.019.517-.306.002.005-.53.282zm-.006-.011l.006.01.53-.281h-.001l-.001-.003-.534.274zm-.015-.035l.564-.205-.564.205zm.022.046l-.008-.013.001.002.534-.274c-.002-.004-.013-.026-.028-.048l-.5.333zm-.053-.065c.02.02.037.041.053.064l.499-.332c-.037-.056-.08-.109-.128-.156l-.424.424zM14.8.927l5.314 5.313.424-.424L15.224.502 14.8.927zm-.065-.053c.024.015.045.033.065.053l.424-.425c-.048-.048-.1-.09-.156-.128l-.333.5zm.01.006l.003.001-.013-.007.333-.5c-.022-.015-.044-.026-.048-.027l-.274.533zm.01.005l.256-.543-.256.543zm-.039-.02l.03.015.274-.533-.003-.002.005.003-.306.516zm-.06-.033c.019.008.037.018.055.03l.316-.511c-.042-.026-.086-.05-.132-.069l-.24.55zm.015.006l.004.001h-.002l-.02-.008.245-.548C14.865.27 14.834.261 14.83.26l-.158.579zm-.043-.014c.02.008.039.013.043.014l.158-.579h-.003l.008.002-.206.563zM14.498.8c.042 0 .085.007.124.022l.218-.559C14.729.22 14.61.198 14.49.2l.008.6zM3.228.8h11.266V.2H3.228v.6zM.84 3.188C.842 1.87 1.91.801 3.229.8L3.228.2C1.578.202.242 1.538.24 3.188h.6zm0 17.595V3.188h-.6v17.595h.6zm2.389 2.389C1.91 23.17.842 22.102.84 20.782l-.6.002c.002 1.649 1.339 2.985 2.988 2.988v-.6zm14.623 0H3.228v.6h14.624v-.6zm2.388-2.39c-.002 1.32-1.07 2.388-2.389 2.39l.001.6c1.65-.003 2.986-1.34 2.988-2.988l-.6-.001zm0-14.236v14.237h.6V6.546h-.6zm-.008-.085c.005.028.008.056.008.085h.6c0-.069-.007-.138-.02-.205l-.588.12zm-1.983-.86l-2.81-2.81-.424.424 2.81 2.81.424-.425zm-1.8.512h1.588v-.6h-1.588v.6zM14.927 4.59c0 .84.681 1.522 1.522 1.522v-.6c-.51 0-.922-.413-.922-.922h-.6zm0-1.588V4.59h.6V3.003h-.6zm2.925 18.702H3.228v.6h14.624v-.6zm.922-.922c0 .51-.413.922-.922.922v.6c.84 0 1.522-.681 1.522-1.522h-.6zm0-13.504v13.504h.6V7.28h-.6zm-2.325.3h2.625v-.6h-2.625v.6zM13.461 4.59c.002 1.65 1.338 2.986 2.988 2.988v-.6c-1.318-.002-2.386-1.07-2.388-2.389l-.6.001zm0-2.625v2.625h.6V1.966h-.6zm-10.233.3h10.533v-.6H3.228v.6zm-.922.922c0-.51.413-.922.922-.922v-.6c-.84 0-1.522.681-1.522 1.522h.6zm0 17.595V3.188h-.6v17.595h.6zm.922.922c-.509 0-.922-.413-.922-.922h-.6c0 .84.682 1.522 1.522 1.522v-.6z"/>
</svg>
