<svg xmlns="http://www.w3.org/2000/svg" width="21" height="23" fill="none" viewBox="0 0 21 23">
    <path fill="#1D1E1F" fill-rule="evenodd" d="M20.096 10.394L10.326.096c-.13-.129-.332-.129-.46 0L.095 10.394c-.127.134-.127.351 0 .485l1.762 1.858c.128.134.334.134.46 0l.472-.496v9.627c0 .19.146.344.326.344h13.962c.18 0 .325-.154.325-.344v-9.625l.472.497c.127.133.333.133.46 0l1.763-1.859c.061-.064.095-.152.095-.244 0-.091-.036-.179-.098-.243zm-3.346 1.19v9.941H3.439v-9.939-.025l6.656-7.02 6.66 7.018-.003.027-.002-.002zm1.352.426l-7.776-8.198c-.128-.133-.333-.133-.46 0L2.088 12.01.786 10.637l9.31-9.813 9.31 9.813-1.303 1.373z" clip-rule="evenodd"/>
</svg>
