<svg xmlns="http://www.w3.org/2000/svg" width="22" height="24" fill="none" viewBox="0 0 22 24">
    <path fill="#000" fill-rule="evenodd" d="M10.083 16.886c0 3.458 2.673 6.272 5.959 6.272 3.285 0 5.958-2.814 5.958-6.272s-2.673-6.272-5.958-6.272c-3.286 0-5.959 2.814-5.959 6.272zm.917 0c0-2.926 2.261-5.307 5.042-5.307 2.78 0 5.041 2.381 5.041 5.307 0 2.926-2.261 5.307-5.041 5.307-2.78 0-5.042-2.381-5.042-5.307z" clip-rule="evenodd"/>
    <path fill="#000" d="M16.042 19.298c-.253 0-.459-.216-.459-.482v-.254c0-.927.463-1.816 1.27-2.437.358-.276.564-.703.564-1.169 0-.798-.617-1.447-1.375-1.447s-1.375.65-1.375 1.447c0 .267-.206.483-.459.483s-.458-.216-.458-.483c0-1.33 1.028-2.412 2.292-2.412 1.263 0 2.291 1.082 2.291 2.412 0 .765-.35 1.494-.937 1.947-.335.258-.896.816-.896 1.66v.253c0 .266-.205.482-.458.482zM16.042 21.228c-.12 0-.239-.048-.321-.145-.092-.087-.138-.212-.138-.337 0-.068.01-.126.037-.184.018-.058.055-.116.1-.154.037-.048.092-.087.147-.105.165-.078.367-.03.495.105.092.087.138.212.138.337 0 .058-.01.126-.037.183-.018.059-.055.116-.1.154-.083.098-.202.146-.321.146zM8.708 20.263H2.292C1.029 20.263 0 19.181 0 17.851V5.307c0-1.33 1.028-2.412 2.292-2.412h1.833c.253 0 .458.216.458.482 0 .267-.205.483-.458.483H2.292c-.758 0-1.375.65-1.375 1.447v12.544c0 .798.617 1.447 1.375 1.447h6.416c.253 0 .459.216.459.483 0 .266-.206.482-.459.482z"/>
    <path fill="#000" fill-rule="evenodd" d="M3.667 4.342c0 .798.617 1.447 1.375 1.447h5.5c.758 0 1.375-.649 1.375-1.447v-1.93c0-.266-.206-.482-.459-.482h-1.42C9.823.83 8.899 0 7.791 0 6.684 0 5.759.83 5.546 1.93H4.125c-.253 0-.458.216-.458.482v1.93zm.916 0V2.895h1.375c.253 0 .459-.216.459-.483 0-.798.617-1.447 1.375-1.447s1.375.65 1.375 1.447c0 .267.205.483.458.483H11v1.447c0 .265-.205.483-.458.483h-5.5c-.253 0-.459-.218-.459-.483z" clip-rule="evenodd"/>
    <path fill="#000" d="M12.375 8.684H3.208c-.253 0-.458-.216-.458-.482 0-.267.205-.483.458-.483h9.167c.253 0 .458.216.458.483 0 .266-.205.482-.458.482zM9.625 11.579H3.208c-.253 0-.458-.216-.458-.482 0-.267.205-.483.458-.483h6.417c.253 0 .458.216.458.482 0 .267-.205.483-.458.483zM15.125 8.684c-.253 0-.458-.216-.458-.482V5.307c0-.798-.617-1.447-1.375-1.447h-1.834c-.253 0-.458-.216-.458-.483 0-.266.205-.482.458-.482h1.834c1.263 0 2.291 1.081 2.291 2.412v2.895c0 .266-.205.482-.458.482z"/>
</svg>
