<svg xmlns="http://www.w3.org/2000/svg" width="24" height="24" fill="none" viewBox="0 0 24 24">
    <path fill="#000" fill-rule="evenodd" d="M11.31 23.158h1.38c1.117 0 2.026-.957 2.026-2.132v-.492c.474-.16.936-.36 1.379-.602l.33.348c.8.843 2.085.823 2.865 0l.976-1.027c.78-.82.802-2.172 0-3.015l-.33-.349c.229-.466.42-.952.572-1.451h.467c1.116 0 2.025-.957 2.025-2.132v-1.454c0-1.175-.909-2.132-2.025-2.132h-.467c-.152-.5-.343-.985-.573-1.451l.33-.349c.803-.843.781-2.195.001-3.015l-.976-1.027c-.778-.82-2.062-.845-2.864 0l-.331.348c-.443-.241-.905-.443-1.38-.602v-.492C14.716.956 13.808 0 12.69 0h-1.38c-1.117 0-2.026.956-2.026 2.132v.491c-.474.16-.936.362-1.379.603l-.33-.348c-.8-.843-2.085-.823-2.865 0l-.976 1.027c-.78.82-.802 2.172 0 3.015l.33.349c-.228.466-.42.952-.572 1.451h-.467C1.91 8.72 1 9.677 1 10.852v1.454c0 1.175.909 2.132 2.025 2.132h.467c.152.5.343.985.573 1.451l-.331.348c-.803.844-.78 2.196 0 3.016l.976 1.027c.778.82 2.062.845 2.864 0l.331-.348c.443.241.905.443 1.38.602v.492c0 1.175.908 2.132 2.025 2.132zm-1.22-3.79c-.691-.188-1.354-.478-1.97-.861-.311-.194-.63-.057-.783.104l-.675.71c-.29.307-.758.298-1.04 0l-.977-1.028c-.284-.298-.291-.79 0-1.096l.674-.71c.208-.218.25-.558.1-.825-.365-.648-.64-1.345-.818-2.073-.073-.3-.33-.508-.624-.508h-.952c-.406 0-.736-.348-.736-.775v-1.454c0-.427.33-.775.736-.775h.952c.294 0 .55-.209.624-.509.178-.727.453-1.425.817-2.073.15-.266.11-.606-.099-.825l-.674-.71c-.292-.307-.283-.798 0-1.095l.977-1.028c.283-.299.75-.306 1.04 0l.675.71c.208.219.53.262.784.104.615-.383 1.278-.673 1.969-.86.285-.078.483-.348.483-.657V2.132c0-.427.33-.775.737-.775h1.38c.406 0 .737.348.737.775v1.002c0 .31.199.58.483.657.691.187 1.354.477 1.97.86.253.158.575.115.783-.104l.675-.71c.29-.307.758-.298 1.04 0l.977 1.028c.284.298.291.79 0 1.096l-.674.71c-.208.218-.25.558-.1.825.365.647.64 1.345.818 2.072.073.3.33.51.624.51h.952c.406 0 .736.347.736.774v1.454c0 .427-.33.775-.736.775h-.952c-.294 0-.55.209-.624.508-.178.728-.453 1.425-.817 2.073-.15.267-.11.607.099.826l.674.71c.292.306.283.798 0 1.095l-.977 1.028c-.283.299-.75.306-1.04 0l-.675-.71c-.208-.219-.53-.262-.784-.104-.615.383-1.278.673-1.969.86-.284.078-.483.348-.483.657v1.002c0 .427-.33.775-.737.775h-1.38c-.406 0-.737-.348-.737-.775v-1.002c0-.31-.198-.58-.483-.657z" clip-rule="evenodd"/>
    <path fill="#fff" d="M14.716 20.534l-.064-.19-.136.047v.143h.2zm1.379-.602l.145-.138-.106-.111-.135.073.096.176zm.33.348l.146-.138-.146.138zm2.865 0l-.145-.138.145.138zm.976-1.027l-.145-.138.145.138zm0-3.015l-.145.137.145-.137zm-.33-.349l-.18-.088-.062.125.096.101.145-.138zm.572-1.451v-.2h-.149l-.043.141.192.059zm0-5.718l-.192.058.043.142h.149v-.2zm-.573-1.451l-.145-.138-.096.1.062.126.18-.088zm.33-.349l-.144-.137.145.137zm.001-3.015l-.145.138.145-.138zm-.976-1.027l-.145.138.145-.138zm-2.864 0l.145.137-.145-.137zm-.331.348l-.096.176.135.073.106-.111-.145-.138zm-1.38-.602h-.2v.143l.137.046.064-.19zm-5.43 0l.063.189.136-.046v-.144h-.2zm-1.38.602l-.145.138.106.111.135-.073-.096-.176zm-.33-.348l-.146.138.145-.138zm-2.865 0l.145.137-.145-.137zm-.976 1.027l.145.138-.145-.138zm0 3.015l.145-.138-.145.138zm.33.349l.18.088.062-.125-.096-.101-.145.138zM3.493 8.72v.2h.149l.043-.142-.192-.058zm0 5.717l.192-.058-.043-.141h-.149v.2zm.573 1.452l.145.138.096-.101-.062-.125-.18.088zm-.331.348l.145.138-.145-.138zm0 3.016l.145-.138-.145.138zm.976 1.027l.145-.138-.145.138zm2.864 0l-.145-.138.145.138zm.331-.348l.096-.176-.135-.073-.106.111.145.138zm1.38.602h.2v-.143l-.137-.046-.064.19zM8.12 18.507l-.106.17.106-.17zm1.969.86l-.053.193.053-.193zm-2.753-.756l-.145-.138.145.138zm-.675.71l-.145-.138.145.138zm-1.04 0l.145-.138-.146.138zm-.977-1.028l.145-.138-.145.138zm0-1.096l.145.138-.145-.138zm.674-.71l.145.138-.145-.137zm.1-.825l.174-.098-.175.098zM4.6 13.59l.194-.047-.194.047zm-1.576-3.512v-.2.2zm1.576-.509l.194.048-.194-.048zm.817-2.073l.175.098-.175-.098zM5.32 6.67l.145-.137-.145.137zm-.674-.71l.145-.137-.145.137zm0-1.095l.145.138-.145-.138zm.977-1.028l.145.138-.145-.138zm1.04 0l-.144.138.145-.138zm.675.71l-.145.138.145-.138zm.784.104l.105.17-.105-.17zm1.969-.86l-.052-.193.052.193zm3.82 0l.053-.193-.053.193zm1.97.86l.105-.17-.106.17zm.783-.104l-.145-.138.145.138zm.675-.71l.145.138-.145-.138zm1.04 0l-.145.138.146-.138zm.977 1.028l-.145.138.145-.138zm0 1.096l-.145-.138.145.138zm-.674.71l.145.137-.145-.138zm-.1.825l-.174.097.175-.097zm.818 2.072l-.194.048.194-.048zm0 4.021l-.194-.047.194.047zm-.817 2.073l-.175-.098.175.098zm.099.826l.145-.138-.145.138zm.674.71l-.145.137.145-.137zm0 1.095l-.145-.138.145.138zm-.977 1.028l-.145-.138.145.138zm-1.04 0l.144-.138-.145.138zm-.675-.71l.145-.138-.145.138zm-.784-.104l-.105-.17.105.17zm-1.969.86l.053.193-.053-.193zm-1.22 3.59h-1.38v.4h1.38v-.4zm1.826-1.93c0 1.074-.829 1.93-1.826 1.93v.4c1.237 0 2.226-1.055 2.226-2.33h-.4zm0-.493v.492h.4v-.492h-.4zm1.483-.778c-.433.236-.883.433-1.347.589l.127.379c.486-.163.958-.37 1.412-.616l-.192-.352zm.571.386l-.33-.348-.29.276.33.348.29-.276zm2.575 0c-.703.741-1.854.76-2.574 0l-.29.276c.88.927 2.296.904 3.154 0l-.29-.275zm.976-1.027l-.976 1.027.29.276.976-1.027-.29-.276zm0-2.74c.728.765.708 1.996 0 2.74l.29.276c.852-.896.877-2.37 0-3.291l-.29.275zm-.33-.348l.33.348.29-.275-.33-.349-.29.276zm.525-1.648c-.148.49-.336.965-.56 1.422l.359.176c.234-.476.43-.971.584-1.481l-.383-.117zm.659-.141h-.467v.4h.467v-.4zm1.825-1.932c0 1.075-.829 1.932-1.825 1.932v.4c1.236 0 2.225-1.056 2.225-2.332h-.4zm0-1.454v1.454h.4v-1.454h-.4zM20.975 8.92c.996 0 1.825.857 1.825 1.932h.4c0-1.276-.989-2.332-2.225-2.332v.4zm-.467 0h.467v-.4h-.467v.4zm-.752-1.563c.224.457.412.932.56 1.421l.383-.116c-.155-.51-.35-1.005-.584-1.482l-.36.177zm.365-.574l-.33.348.29.275.33-.348-.29-.275zm0-2.74c.708.744.728 1.974 0 2.74l.29.275c.877-.922.852-2.395 0-3.29l-.29.275zm-.976-1.027l.976 1.027.29-.276-.976-1.027-.29.276zm-2.574 0c.721-.76 1.873-.74 2.574 0l.29-.276c-.855-.902-2.272-.93-3.154 0l.29.275zm-.331.348l.33-.349-.29-.275-.33.348.29.276zm-1.588-.55c.464.155.914.352 1.347.588l.191-.351c-.453-.247-.925-.454-1.41-.617l-.128.38zm-.136-.682v.492h.4v-.492h-.4zM12.69.2c.997 0 1.826.857 1.826 1.932h.4C14.916.856 13.927-.2 12.69-.2v.4zm-1.38 0h1.38v-.4h-1.38v.4zM9.484 2.132C9.484 1.057 10.313.2 11.31.2v-.4C10.073-.2 9.084.856 9.084 2.132h.4zm0 .491v-.491h-.4v.491h.4zm-1.483.779c.433-.236.883-.433 1.347-.589l-.127-.38c-.486.164-.958.37-1.411.617l.19.352zm-.572-.386l.331.348.29-.276-.33-.348-.29.276zm-2.574 0c.703-.741 1.854-.76 2.574 0l.29-.276c-.88-.927-2.296-.904-3.154 0l.29.275zM3.88 4.042l.976-1.028-.29-.275-.976 1.027.29.276zm0 2.74c-.728-.765-.708-1.996 0-2.74l-.29-.276c-.852.896-.877 2.37 0 3.291l.29-.276zm.33.348l-.33-.349-.29.276.33.348.29-.275zm-.525 1.647c.148-.489.336-.964.56-1.421l-.359-.177c-.234.477-.43.972-.584 1.482l.383.116zm-.659.142h.467v-.4h-.467v.4zM1.2 10.852c0-1.075.829-1.932 1.825-1.932v-.4C1.79 8.52.8 9.576.8 10.852h.4zm0 1.454v-1.454H.8v1.454h.4zm1.825 1.932c-.996 0-1.825-.857-1.825-1.932H.8c0 1.276.989 2.332 2.225 2.332v-.4zm.467 0h-.467v.4h.467v-.4zm.752 1.563c-.224-.457-.412-.932-.56-1.422l-.383.117c.155.51.35 1.005.584 1.481l.36-.176zm-.365.574l.33-.348-.29-.276-.33.349.29.275zm0 2.74c-.708-.744-.728-1.974 0-2.74l-.29-.275c-.877.922-.852 2.395 0 3.29l.29-.275zm.976 1.027l-.976-1.027-.29.276.976 1.027.29-.276zm2.574 0c-.721.76-1.873.74-2.574 0l-.29.276c.855.902 2.272.93 3.154 0l-.29-.276zm.331-.348l-.33.348.29.276.33-.348-.29-.276zm1.588.55c-.464-.155-.914-.352-1.347-.588l-.192.351c.454.247.926.454 1.412.617l.127-.38zm.136.682v-.492h-.4v.492h.4zm1.826 1.932c-.997 0-1.826-.857-1.826-1.932h-.4c0 1.276.989 2.332 2.226 2.332v-.4zm-3.295-4.281c.632.393 1.312.69 2.022.883l.105-.386c-.672-.182-1.316-.464-1.916-.837l-.211.34zm-.533.072c.11-.116.326-.201.533-.072l.211-.34c-.416-.26-.838-.07-1.034.136l.29.276zm-.675.71l.675-.71-.29-.276-.675.71.29.276zm-1.33 0c.36.38.959.391 1.33 0l-.29-.276c-.21.222-.545.217-.75 0l-.29.275zM4.5 18.43l.976 1.027.29-.275-.976-1.028-.29.276zm0-1.372c-.366.385-.356.998 0 1.372l.29-.276c-.211-.222-.217-.592 0-.82l-.29-.276zm.674-.71l-.674.71.29.276.674-.71-.29-.275zm.07-.589c.108.192.077.435-.07.59l.29.275c.27-.283.32-.719.129-1.06l-.349.195zm-.837-2.123c.182.745.464 1.46.837 2.123l.349-.195c-.355-.633-.624-1.313-.798-2.023l-.388.095zm-.43-.356c.195 0 .377.14.43.356l.388-.095c-.094-.383-.426-.661-.818-.661v.4zm-.952 0h.952v-.4h-.952v.4zm-.936-.975c0 .528.41.975.936.975v-.4c-.286 0-.536-.249-.536-.575h-.4zm0-1.454v1.454h.4v-1.454h-.4zm.936-.975c-.526 0-.936.447-.936.975h.4c0-.326.25-.575.536-.575v-.4zm.952 0h-.952v.4h.952v-.4zm.43-.356c-.053.216-.235.356-.43.356v.4c.392 0 .724-.278.818-.661l-.388-.095zm.837-2.124c-.373.664-.655 1.379-.837 2.124l.388.095c.174-.71.443-1.39.798-2.023l-.349-.196zm-.07-.589c.147.154.178.398.07.59l.349.195c.192-.341.141-.777-.129-1.06l-.29.275zm-.674-.71l.674.71.29-.275-.674-.71-.29.275zm0-1.371c-.354.373-.367.985 0 1.371l.29-.275c-.217-.229-.21-.599 0-.82l-.29-.276zm.977-1.028L4.5 4.727l.29.275.977-1.027-.29-.276zm1.33 0c-.37-.39-.97-.38-1.33 0l.29.275c.206-.217.54-.221.75 0l.29-.275zm.675.71l-.674-.71-.29.276.674.71.29-.276zm.533.072c-.171.107-.39.08-.533-.072l-.29.276c.272.286.699.345 1.034.136l-.211-.34zm2.023-.883c-.71.192-1.391.49-2.023.883l.211.34c.6-.373 1.244-.655 1.916-.837l-.104-.386zm.335-.464c0 .225-.144.411-.335.464l.104.386c.378-.103.632-.457.632-.85h-.4zm0-1.002v1.002h.4V2.132h-.4zm.937-.975c-.526 0-.937.447-.937.975h.4c0-.327.25-.575.537-.575v-.4zm1.38 0h-1.38v.4h1.38v-.4zm.937.975c0-.528-.41-.975-.937-.975v.4c.286 0 .537.248.537.575h.4zm0 1.002V2.132h-.4v1.002h.4zm.336.464c-.192-.052-.336-.239-.336-.464h-.4c0 .393.253.747.63.85l.106-.386zm2.022.883c-.632-.393-1.312-.69-2.022-.883l-.105.386c.672.182 1.316.464 1.916.837l.211-.34zm.533-.072c-.144.152-.362.179-.533.072l-.211.34c.335.209.762.15 1.034-.136l-.29-.276zm.675-.71l-.675.71.29.276.675-.71-.29-.276zm1.33 0c-.36-.38-.959-.391-1.33 0l.29.276c.21-.222.545-.217.75 0l.29-.275zm.977 1.028L18.524 3.7l-.29.276.976 1.028.29-.276zm0 1.372c.366-.385.356-.998 0-1.372l-.29.276c.211.222.217.592 0 .82l.29.276zm-.674.71l.674-.71-.29-.276-.674.71.29.275zm-.07.589c-.108-.192-.077-.436.07-.59l-.29-.275c-.27.283-.32.719-.129 1.06l.349-.195zm.837 2.123c-.182-.745-.464-1.46-.837-2.123l-.349.195c.355.633.624 1.313.798 2.023l.388-.095zm.43.356c-.195 0-.377-.14-.43-.356l-.388.095c.094.383.426.661.818.661v-.4zm.952 0h-.952v.4h.952v-.4zm.936.975c0-.528-.41-.975-.936-.975v.4c.286 0 .536.249.536.575h.4zm0 1.454v-1.454h-.4v1.454h.4zm-.936.975c.526 0 .936-.447.936-.975h-.4c0 .326-.25.575-.536.575v.4zm-.952 0h.952v-.4h-.952v.4zm-.43.356c.053-.216.235-.356.43-.356v-.4c-.392 0-.724.278-.818.66l.388.096zm-.837 2.123c.373-.663.655-1.378.837-2.123l-.388-.095c-.174.71-.443 1.39-.798 2.023l.349.195zm.07.59c-.147-.155-.178-.398-.07-.59l-.349-.195c-.192.341-.14.777.129 1.06l.29-.275zm.674.71l-.674-.71-.29.275.674.71.29-.275zm0 1.371c.354-.373.367-.986 0-1.371l-.29.275c.217.228.21.598 0 .82l.29.276zm-.977 1.028l.977-1.028-.29-.276-.977 1.028.29.276zm-1.33 0c.37.39.97.38 1.33 0l-.29-.276c-.206.217-.54.222-.75 0l-.29.275zm-.675-.71l.674.71.29-.276-.674-.71-.29.276zm-.533-.072c.171-.107.39-.08.533.072l.29-.276c-.272-.286-.699-.345-1.034-.136l.211.34zm-2.022.883c.71-.192 1.39-.49 2.022-.883l-.211-.34c-.6.373-1.244.655-1.916.837l.104.386zm-.336.464c0-.225.144-.412.335-.464l-.104-.386c-.378.103-.631.457-.631.85h.4zm0 1.002v-1.002h-.4v1.002h.4zm-.937.975c.526 0 .937-.447.937-.975h-.4c0 .327-.25.575-.537.575v.4zm-1.38 0h1.38v-.4h-1.38v.4zm-.937-.975c0 .528.41.975.937.975v-.4c-.286 0-.537-.248-.537-.575h-.4zm0-1.002v1.002h.4v-1.002h-.4zm-.335-.464c.191.052.335.239.335.464h.4c0-.393-.253-.747-.63-.85l-.106.386z"/>
    <path fill="#000" fill-rule="evenodd" d="M7.213 11.579c0 2.778 2.148 5.039 4.787 5.039 2.64 0 4.787-2.26 4.787-5.04 0-2.777-2.148-5.038-4.787-5.038-2.64 0-4.787 2.26-4.787 5.039zm1.29 0c0-2.03 1.568-3.682 3.497-3.682 1.929 0 3.498 1.652 3.498 3.682 0 2.03-1.57 3.682-3.498 3.682-1.929 0-3.498-1.652-3.498-3.682z" clip-rule="evenodd"/>
    <path fill="#fff" d="M12 16.418c-2.52 0-4.587-2.161-4.587-4.84h-.4c0 2.88 2.228 5.24 4.987 5.24v-.4zm4.587-4.84c0 2.679-2.068 4.84-4.587 4.84v.4c2.76 0 4.987-2.36 4.987-5.24h-.4zM12 6.74c2.52 0 4.587 2.161 4.587 4.839h.4C16.987 8.7 14.759 6.34 12 6.34v.4zM7.413 11.58C7.413 8.9 9.481 6.74 12 6.74v-.4c-2.76 0-4.987 2.36-4.987 5.239h.4zM12 7.697c-2.049 0-3.698 1.751-3.698 3.882h.4c0-1.93 1.49-3.482 3.298-3.482v-.4zm3.698 3.882c0-2.13-1.65-3.882-3.698-3.882v.4c1.809 0 3.298 1.552 3.298 3.482h.4zM12 15.46c2.049 0 3.698-1.751 3.698-3.882h-.4c0 1.93-1.49 3.482-3.298 3.482v.4zm-3.698-3.882c0 2.13 1.65 3.882 3.698 3.882v-.4c-1.809 0-3.298-1.553-3.298-3.482h-.4z"/>
</svg>
