<svg xmlns="http://www.w3.org/2000/svg" width="17" height="17" fill="none" viewBox="0 0 17 17">
    <g clip-path="url(#clip0)">
        <path fill="#F47634" fill-rule="evenodd" d="M8.453.971c-4.412 0-8 3.588-8 8s3.588 8 8 8 8-3.588 8-8-3.588-8-8-8zm0 1.067c3.836 0 6.933 3.098 6.933 6.933 0 3.836-3.097 6.934-6.933 6.934-3.835 0-6.933-3.098-6.933-6.934 0-3.835 3.098-6.933 6.933-6.933zm0 2.489c-1.466 0-2.667 1.2-2.667 2.666-.002.193.099.372.265.469.166.097.372.097.538 0 .166-.097.267-.276.264-.469 0-.89.71-1.6 1.6-1.6.89 0 1.6.71 1.6 1.6 0 .554-.223.932-.589 1.317-.366.385-.873.734-1.344 1.111-.127.101-.2.255-.2.417v.711c-.003.192.098.371.264.468.166.097.372.097.538 0 .166-.097.267-.276.264-.468v-.45c.389-.297.845-.623 1.256-1.056.479-.504.878-1.184.878-2.05 0-1.466-1.2-2.666-2.667-2.666zm0 7.466c-.393 0-.711.319-.711.711 0 .393.318.712.711.712.393 0 .711-.319.711-.712 0-.392-.318-.71-.71-.71z" clip-rule="evenodd"/>
    </g>
    <defs>
        <clipPath id="clip0">
            <path fill="#fff" d="M0 0H16V16H0z" transform="translate(.453 .971)"/>
        </clipPath>
    </defs>
</svg>
